<?xml version="1.0" encoding="UTF-8" standalone="no"?>
<svg
   version="1.1"
   width="1024"
   height="1024"
   id="svg42"
   sodipodi:docname="d2bf02f8-5a21-4ff4-98b1-995b2c90e607.svg"
   inkscape:version="1.4.2 (f4327f4, 2025-05-13)"
   xmlns:inkscape="http://www.inkscape.org/namespaces/inkscape"
   xmlns:sodipodi="http://sodipodi.sourceforge.net/DTD/sodipodi-0.dtd"
   xmlns="http://www.w3.org/2000/svg"
   xmlns:svg="http://www.w3.org/2000/svg">
  <defs
     id="defs42" />
  <sodipodi:namedview
     id="namedview42"
     pagecolor="#ffffff"
     bordercolor="#000000"
     borderopacity="0.25"
     inkscape:showpageshadow="2"
     inkscape:pageopacity="0.0"
     inkscape:pagecheckerboard="0"
     inkscape:deskcolor="#d1d1d1"
     inkscape:zoom="0.86425781"
     inkscape:cx="604.56497"
     inkscape:cy="432.16271"
     inkscape:window-width="1920"
     inkscape:window-height="1129"
     inkscape:window-x="5752"
     inkscape:window-y="367"
     inkscape:window-maximized="1"
     inkscape:current-layer="svg42" />
  <path
     d="M0 0 C337.92 0 675.84 0 1024 0 C1024 337.92 1024 675.84 1024 1024 C686.08 1024 348.16 1024 0 1024 C0 686.08 0 348.16 0 0 Z "
     fill="#081E2C"
     transform="translate(0,0)"
     id="path1" />
  <path
     d="M0 0 C-1.50927843 8.55197239 -3.80496931 16.86317166 -6.1484375 25.21484375 C-6.56175249 26.69811362 -6.97474443 28.18147353 -7.38743591 29.66491699 C-8.48582843 33.60973834 -9.58862642 37.5533151 -10.69232559 41.49665451 C-11.83615322 45.58631492 -12.97585645 49.67712433 -14.1159668 53.76782227 C-16.13403871 61.00649614 -18.15540816 68.24424353 -20.17844868 75.48153019 C-22.03748968 82.1326402 -23.89254558 88.78485714 -25.74609375 95.4375 C-27.23945672 100.79738751 -28.73330717 106.15712777 -30.23339844 111.51513672 C-32.06343148 118.05195276 -33.89322897 124.58848483 -35.67967224 131.13737488 C-36.18652939 132.99516669 -36.69611272 134.85221406 -37.20581055 136.70922852 C-37.79230756 138.84881323 -38.37373021 140.98979984 -38.94848633 143.13256836 C-39.19493896 144.02854736 -39.4413916 144.92452637 -39.6953125 145.84765625 C-40.0049292 146.9924646 -40.0049292 146.9924646 -40.32080078 148.16040039 C-41 150 -41 150 -43 152 C-57.30839642 136.76627372 -57.30839642 136.76627372 -62.40234375 130.8515625 C-65.55709007 127.19545062 -68.78716812 123.60504772 -72 120 C-76.83681473 124.03046049 -81.3868753 128.25033556 -85.81811523 132.72045898 C-86.78060684 133.68514099 -86.78060684 133.68514099 -87.76254272 134.66931152 C-89.14405606 136.0546059 -90.52441388 137.44105344 -91.90371513 138.82855034 C-94.09258827 141.03028806 -96.28465819 143.22879846 -98.47755432 145.42652893 C-103.92197289 150.88425657 -109.36092914 156.34741728 -114.80004883 161.8104248 C-119.40351059 166.43368795 -124.00906217 171.05485033 -128.61735725 175.67329597 C-130.76630496 177.82867833 -132.91219355 179.98707399 -135.05796814 182.14561462 C-136.3893255 183.48060819 -137.72082554 184.81545949 -139.05249023 186.15014648 C-139.63923019 186.74205276 -140.22597015 187.33395905 -140.83049011 187.94380188 C-144.48607292 191.5998411 -148.28163067 195.03553031 -152.19162083 198.41746616 C-154.33074617 200.28943985 -156.3596035 202.24584327 -158.36132812 204.26367188 C-159.11571167 205.02135864 -159.87009521 205.77904541 -160.64733887 206.55969238 C-161.43402954 207.3546814 -162.22072021 208.14967041 -163.03125 208.96875 C-163.86660278 209.8078894 -164.70195557 210.64702881 -165.56262207 211.51159668 C-168.21087086 214.171969 -170.85584406 216.83556013 -173.5 219.5 C-176.98662601 223.01337273 -180.47664926 226.52331971 -183.96875 230.03125 C-184.75544067 230.82623901 -185.54213135 231.62122803 -186.35266113 232.44030762 C-187.10704468 233.19799438 -187.86142822 233.95568115 -188.63867188 234.73632812 C-189.28960815 235.39250122 -189.94054443 236.04867432 -190.61120605 236.72473145 C-193.97270448 239.92647753 -197.50632129 242.94303113 -201 246 C-211.395 256.395 -211.395 256.395 -222 267 C73.515 267.495 73.515 267.495 375 268 C375 268.66 375 269.32 375 270 C373.54663086 271.44970703 373.54663086 271.44970703 371.52734375 273.1328125 C367.0770231 276.91827777 362.80941113 280.86384051 358.5625 284.875 C357.81750244 285.57681396 357.07250488 286.27862793 356.30493164 287.00170898 C351.75046397 291.30538984 347.28410402 295.6801382 342.88671875 300.14453125 C341.06782137 301.93330196 339.19181395 303.59645534 337.25 305.25 C333.47264578 308.48341521 329.99342092 311.96720957 326.5 315.5 C311.46880224 330.6844892 311.46880224 330.6844892 307.03415728 331.251233 C306.27954986 331.251816 305.52494243 331.252399 304.74746811 331.25299966 C303.87335654 331.25851915 302.99924496 331.26403864 302.09864515 331.26972538 C301.13572209 331.26561475 300.17279903 331.26150411 299.18069649 331.25726891 C297.64301948 331.26252802 297.64301948 331.26252802 296.0742783 331.26789337 C292.60505896 331.27727079 289.13600517 331.27226777 285.66677856 331.26742554 C283.16812244 331.2711586 280.66946748 331.27575874 278.17081439 331.28115618 C272.72058679 331.29087217 267.27041008 331.29429545 261.82017517 331.29224396 C253.71556746 331.28920075 245.61099923 331.29750279 237.50639919 331.30799321 C222.19120678 331.32736227 206.87602773 331.33296251 191.56082453 331.33410732 C179.73646894 331.33502543 167.91211862 331.33913701 156.08776474 331.34550858 C152.68754829 331.34730359 149.28733182 331.34908321 145.88711536 331.35085833 C145.04187862 331.35130043 144.19664188 331.35174252 143.32579191 331.35219802 C119.54216217 331.36451104 95.75853426 331.37239867 71.9749012 331.37151146 C71.07771202 331.3714803 70.18052285 331.37144914 69.25614612 331.37141704 C64.70852955 331.37125082 60.16091297 331.37105274 55.6132964 331.37084763 C54.71007797 331.37080774 53.80685954 331.37076785 52.87627085 331.37072675 C51.04974229 331.37064587 49.22321372 331.37056228 47.39668516 331.37047596 C18.97228138 331.36925017 -9.45207471 331.38426697 -37.87646484 331.41162109 C-69.79018101 331.4423203 -101.70386583 331.4595549 -133.6175977 331.45769465 C-137.01844287 331.45754538 -140.41928804 331.45744797 -143.82013321 331.45738602 C-144.65754578 331.45736271 -145.49495836 331.4573394 -146.35774707 331.45731538 C-159.85314049 331.45725375 -173.3484926 331.47004335 -186.84387373 331.48725055 C-200.39924319 331.50417716 -213.95455202 331.50620424 -227.50992619 331.4930319 C-235.56959377 331.48562288 -243.62907757 331.48935862 -251.68872582 331.50891658 C-257.6971495 331.52226871 -263.70535449 331.51485896 -269.71378054 331.49917014 C-272.1518537 331.49607639 -274.58994653 331.49982085 -277.02799653 331.51089029 C-280.32866889 331.52489018 -283.62837604 331.51452015 -286.92901421 331.49777794 C-288.3663753 331.51268248 -288.3663753 331.51268248 -289.83277398 331.52788812 C-294.07919909 331.48199223 -296.36222196 331.40412152 -300.01859677 329.08729708 C-301.85551711 327.15220462 -303.66479235 325.23557795 -305.375 323.1875 C-307.6595685 320.51228018 -309.98721471 317.96207886 -312.5 315.5 C-314.79326036 313.24202057 -316.96428028 310.94003496 -319.0625 308.5 C-323.28726271 303.58725988 -327.74872057 298.89674914 -332.20141602 294.19140625 C-332.79108154 293.56492187 -333.38074707 292.9384375 -333.98828125 292.29296875 C-334.51977783 291.7311792 -335.05127441 291.16938965 -335.59887695 290.59057617 C-338.56637763 287.22182431 -339.62377905 284.68807557 -339.50708008 280.1640625 C-337.88733259 273.25147621 -329.31826737 267.32600201 -324.25 262.6875 C-319.40802974 258.20800626 -314.63525897 253.6935234 -310 249 C-307.12350672 246.08936436 -304.24173982 243.27616872 -301.125 240.625 C-297.38456778 237.43870588 -293.95196232 233.99120031 -290.5 230.5 C-286.51223718 226.46701163 -282.48505089 222.60597533 -278.15625 218.9375 C-274.59504577 215.73757736 -271.26312939 212.30448674 -267.91796875 208.88085938 C-265.07301775 205.99002207 -262.16759356 203.24133791 -259.09375 200.59375 C-254.85175516 196.92817934 -250.92399242 193.0006329 -247 189 C-242.46017742 184.37150901 -237.85013162 179.94623154 -232.9375 175.71484375 C-229.81495997 172.95114401 -226.91580818 169.97846941 -224 167 C-216.76810323 159.68428827 -216.76810323 159.68428827 -213.0625 156.5625 C-208.97378827 153.10961385 -205.26265524 149.29922582 -201.5 145.5 C-197.19812358 141.15635272 -192.89692097 136.9395124 -188.21875 133 C-184.19090944 129.36927048 -180.42461585 125.46278673 -176.62890625 121.59179688 C-173.55535214 118.47600577 -170.44662946 115.47636886 -167.125 112.625 C-162.33530235 108.49498912 -157.93399464 104.0051663 -153.5 99.5 C-148.46157976 94.38070624 -143.40209966 89.40315177 -137.95117188 84.72412109 C-134.48194663 81.65859699 -131.25126047 78.35577477 -128 75.0625 C-127.32066406 74.37865234 -126.64132812 73.69480469 -125.94140625 72.99023438 C-124.29191641 71.32912841 -122.6448332 69.66571487 -121 68 C-124.34215905 63.98373244 -127.6790788 60.19420614 -131.625 56.75 C-135.49805172 53.3319152 -139.32771387 49.87650257 -143.125 46.375 C-147.68967018 42.178332 -152.31211572 38.05831304 -157 34 C-158.50064092 32.68823285 -160.00064969 31.37574214 -161.5 30.0625 C-162.50546875 29.18271484 -162.50546875 29.18271484 -163.53125 28.28515625 C-164.0159375 27.86105469 -164.500625 27.43695312 -165 27 C-161.91444465 24.9429631 -160.36155061 24.54980129 -156.77734375 23.98193359 C-155.69893219 23.80739151 -154.62052063 23.63284943 -153.50942993 23.45301819 C-152.33069305 23.27000656 -151.15195618 23.08699493 -149.9375 22.8984375 C-148.70421967 22.70104477 -147.47093933 22.50365204 -146.20028687 22.30027771 C-142.8359106 21.76333667 -139.47061647 21.23302139 -136.1047287 20.70569229 C-132.57500335 20.15110634 -129.04662163 19.58809661 -125.51806641 19.02612305 C-117.67612191 17.77891465 -109.83222707 16.5442798 -101.98786926 15.31235504 C-98.91852882 14.83006781 -95.84940587 14.34640188 -92.78027344 13.86279297 C-84.24997762 12.51917725 -75.71942786 11.17726129 -67.18701172 9.84716797 C-56.8656 8.23791837 -46.54733538 6.6118571 -36.234375 4.94921875 C-34.1752943 4.61807438 -32.1162123 4.28693816 -30.05712891 3.95581055 C-26.19933462 3.33518975 -22.34238656 2.7096193 -18.48583984 2.08129883 C-16.76402727 1.80401367 -15.04218646 1.52690375 -13.3203125 1.25 C-12.15855499 1.05847603 -12.15855499 1.05847603 -10.97332764 0.86308289 C-7.26800066 0.27141645 -3.74694711 -0.05336682 0 0 Z "
     fill="#ED6E21"
     transform="translate(456,517)"
     id="path2" />
  <path
     d="M0 0 C18.49952171 15.82578335 28.21986433 38.40758436 31.4296875 62.2109375 C31.70381334 66.87352161 31.71353894 71.52364446 31.7043457 76.19335938 C31.70870405 77.56315384 31.71389089 78.93294587 31.71983337 80.30273438 C31.73312149 83.99335159 31.73381296 87.68386574 31.73127007 91.37450218 C31.7301923 94.47496104 31.73510474 97.57539972 31.7398755 100.67585421 C31.7509379 108.00592366 31.75142812 115.33594188 31.74536133 122.66601562 C31.73933918 130.17709683 31.7515952 137.68798986 31.7729314 145.19903898 C31.79067464 151.68868799 31.79652849 158.17827784 31.79329365 164.66795015 C31.79149901 168.52550662 31.79393047 172.3829292 31.80800819 176.24046326 C31.91349622 207.8454575 29.92824083 238.83417457 7.4296875 263.2109375 C6.81738281 263.91476562 6.20507812 264.61859375 5.57421875 265.34375 C-4.93731899 276.77420682 -19.63418819 283.55976011 -34.2578125 287.9609375 C-34.9588208 288.17202148 -35.6598291 288.38310547 -36.38208008 288.60058594 C-63.06281526 296.24787043 -95.87349838 292.27405115 -120.16137695 279.39111328 C-127.15576419 275.4990675 -132.89628357 270.81353082 -138.5703125 265.2109375 C-139.20453125 264.63730469 -139.83875 264.06367187 -140.4921875 263.47265625 C-156.67336279 248.47284995 -163.15850226 224.46619504 -164.5703125 203.2109375 C-164.92433967 193.62880508 -164.87883425 184.03610751 -164.87189507 174.44865465 C-164.87081116 171.47464623 -164.8757443 168.5006585 -164.8805005 165.5266546 C-164.89152337 158.49757109 -164.89207395 151.46854105 -164.88598633 144.43945312 C-164.87995049 137.24520854 -164.89226437 130.05115972 -164.9135564 122.85694849 C-164.93130267 116.62619925 -164.93715352 110.39551158 -164.93391865 104.16473806 C-164.93212651 100.46711783 -164.93453054 96.76963733 -164.94863319 93.07204056 C-165.08473833 54.07234178 -165.08473833 54.07234178 -158.3203125 37.2734375 C-158.01657715 36.4904126 -157.7128418 35.7073877 -157.39990234 34.90063477 C-152.92155822 23.69322638 -146.96424422 14.86151821 -138.5703125 6.2109375 C-138.01859375 5.58574219 -137.466875 4.96054687 -136.8984375 4.31640625 C-104.65317409 -31.04164249 -35.51405878 -28.6594318 0 0 Z "
     fill="#F5EEE2"
     transform="translate(876.5703125,460.7890625)"
     id="path3" />
  <path
     d="M0 0 C1.5615894 1.35233119 3.10340118 2.72782494 4.625 4.125 C5.45386719 4.85074219 6.28273438 5.57648438 7.13671875 6.32421875 C23.8230451 21.78398513 30.67963386 43.44374307 31.8046875 65.67578125 C32.58618444 104.70721193 12.22427772 134.70070984 -13.375 162.125 C-14.45845876 163.29024797 -15.54178793 164.45561646 -16.625 165.62109375 C-23.52585116 173.03675615 -30.4661999 180.41509703 -37.4128418 187.7878418 C-41.74609589 192.38862587 -46.06613994 197.00136832 -50.375 201.625 C-55.6306771 207.26430874 -60.90408632 212.88666754 -66.1875 218.5 C-66.88810547 219.24443359 -67.58871094 219.98886719 -68.31054688 220.75585938 C-73.23960433 225.98960433 -73.23960433 225.98960433 -74.375 227.125 C-39.725 227.455 -5.075 227.785 30.625 228.125 C30.955 246.275 31.285 264.425 31.625 283.125 C-31.075 283.125 -93.775 283.125 -158.375 283.125 C-158.375 266.295 -158.375 249.465 -158.375 232.125 C-152.435 226.185 -146.495 220.245 -140.375 214.125 C-138.065 211.485 -135.755 208.845 -133.375 206.125 C-131.72805515 204.43884218 -130.06373879 202.76929829 -128.375 201.125 C-125.44381809 198.22908042 -122.61096826 195.32257429 -119.9375 192.1875 C-116.63356387 188.32119176 -113.04804398 184.7686537 -109.4309082 181.20043945 C-106.11451051 177.91150202 -103.0150855 174.50338587 -99.984375 170.953125 C-97.80885379 168.48190187 -95.46499347 166.2045047 -93.1171875 163.8984375 C-91.32784173 162.07699585 -89.66211468 160.18785721 -88 158.25 C-85.40865795 155.2403247 -82.70245217 152.41411384 -79.875 149.625 C-76.58518631 146.36830524 -73.45266636 143.05306088 -70.4453125 139.53515625 C-68.77139443 137.58646294 -67.07705764 135.66298144 -65.3671875 133.74609375 C-58.39656083 125.88913574 -52.08412228 117.94924173 -46.375 109.125 C-45.81167969 108.28710938 -45.24835938 107.44921875 -44.66796875 106.5859375 C-37.64535799 95.66977799 -34.92854508 85.73240198 -34.8125 72.875 C-34.79783691 71.86937012 -34.78317383 70.86374023 -34.76806641 69.82763672 C-34.8788979 61.71023129 -36.50031084 54.60488688 -41.75 48.25 C-50.14091435 41.45735505 -57.4972032 39.53035473 -68.24609375 39.75 C-75.08988123 40.57022921 -81.92864306 43.11623623 -86.8125 48.125 C-94.26609561 58.3627328 -95.34474081 70.94344487 -97.375 83.125 C-117.835 83.125 -138.295 83.125 -159.375 83.125 C-159.375 66.7462194 -159.375 66.7462194 -157.75 59.25 C-157.57251221 58.4055835 -157.39502441 57.56116699 -157.2121582 56.69116211 C-153.39076627 39.46814706 -146.15847984 23.39023479 -134.375 10.125 C-133.82199219 9.50109375 -133.26898437 8.8771875 -132.69921875 8.234375 C-100.21807922 -26.18478001 -36.92854906 -28.47294671 0 0 Z "
     fill="#F5EEE2"
     transform="translate(651.375,461.875)"
     id="path4" />
  <path
     d="M0 0 C-4.81867247 5.80891746 -10.01256408 11.13065552 -15.375 16.4375 C-16.20644531 17.26443359 -17.03789063 18.09136719 -17.89453125 18.94335938 C-19.9274104 20.96455531 -21.96259963 22.98336335 -24 25 C-25.10214844 24.48050781 -26.20429687 23.96101563 -27.33984375 23.42578125 C-35.15302841 19.80948219 -42.91048796 16.47165379 -51.1875 14.0625 C-51.86868896 13.86374268 -52.54987793 13.66498535 -53.25170898 13.46020508 C-78.62398803 6.40730629 -106.78969545 10.26516355 -130 22 C-131.05832031 22.53496094 -132.11664062 23.06992188 -133.20703125 23.62109375 C-141.3560078 28.07472838 -148.13889354 33.81390806 -155 40 C-155.66773438 40.58394531 -156.33546875 41.16789062 -157.0234375 41.76953125 C-174.97673028 58.41636375 -185.42020123 84.86817833 -186.3359375 108.97265625 C-186.77176791 138.46065421 -179.02824948 164.76173679 -159 187 C-158.31421875 187.76828125 -157.6284375 188.5365625 -156.921875 189.328125 C-138.80244253 208.52130162 -112.02699966 220.23930474 -85.6953125 221.203125 C-55.73261589 221.71600587 -27.35049987 212.49750248 -5.26147461 191.73291016 C13.91764942 172.91624091 26.59614715 146.50809926 27.16796875 119.4609375 C27.17980895 117.43231577 27.18621115 115.40365587 27.1875 113.375 C27.19974609 112.38371094 27.21199219 111.39242187 27.22460938 110.37109375 C27.23320897 105.91650461 27.21959458 101.88930155 26.14599609 97.54150391 C23.99174205 88.67888076 23.99174205 88.67888076 26.9597168 83.73681641 C29.77028709 80.38883016 32.98486217 77.5180882 36.25 74.625 C37.35377104 73.58444051 38.45407362 72.54018889 39.55078125 71.4921875 C47.50443032 64 47.50443032 64 50 64 C60.2273543 90.23538713 62.79611611 120.52620813 56 148 C55.80664062 148.78745605 55.61328125 149.57491211 55.4140625 150.38623047 C49.86799677 172.16395308 40.38617399 191.39849618 24.9765625 207.8671875 C22.8579525 210.09078081 22.8579525 210.09078081 20.625 213.0625 C-1.00734915 237.27012881 -36.75242277 253.1268734 -69 255 C-107.53108749 256.7434245 -143.44610691 246.41820679 -173 221 C-173.94359375 220.20207031 -174.8871875 219.40414062 -175.859375 218.58203125 C-202.72181911 195.31907573 -218.18911341 161.37844273 -220.87109375 126.14306641 C-222.44634756 99.95447182 -218.01235916 75.45869092 -206 52 C-205.52820313 51.05898437 -205.05640625 50.11796875 -204.5703125 49.1484375 C-188.63285571 18.56575015 -159.90872752 -5.49619378 -127.4375 -16.875 C-84.1687803 -30.10903357 -38.01960109 -25.34640072 0 0 Z "
     fill="#ED6F22"
     transform="translate(789,165)"
     id="path5" />
  <path
     d="m 0,0 2.4157562,0.00672913 2.7298737,2.2888e-4 2.9671478,0.01564026 3.0224453,0.0042877 c 3.19958,0.0056174 6.39909,0.01817282 9.598648,0.03086853 2.163411,0.0050128 4.326822,0.0095761 6.490235,0.01367187 5.315779,0.01105206 10.631517,0.02780709 15.947265,0.04882813 3.178133,11.6616315 6.089543,23.3790035 8.9375,35.1250005 0.448254,1.844173 0.896578,3.68833 1.344971,5.53247 3.418657,14.07014 6.835599,28.140435 10.076904,42.252686 0.525476,2.280078 1.05155,4.560019 1.578125,6.839844 l 0.829102,3.592285 c 2.180832,9.38219 4.477994,18.7343 6.795898,28.0835 l 0.958634,3.87307 c 1.940449,7.83919 1.940449,7.83919 3.894852,15.6749 0.927456,3.70676 1.848027,7.41518 2.767608,11.1239 l 0.860718,3.4117 0.781616,3.16667 0.689682,2.76064 c 0.48439,2.56333 0.48439,2.56333 0.48439,7.56333 h -36 l -3,-12.125 -0.949218,-3.78955 -0.738282,-3.03076 c -0.623102,-5.15073 -1.670448,-10.3531 -1.3125,-12.05469 l -40.99999954,1 -5.99999996,30 H -42.828629 c 2.34726,-12.11407 4.89343,-24.09434 7.956461,-36.04505 1.104794,-4.31357 2.191048,-8.63182 3.279379,-12.94957 l 0.688081,-2.72561 c 2.555641,-10.1438 5.017991,-20.309867 7.470611,-30.478984 l 0.675472,-2.799107 c 1.355275,-5.617564 2.708041,-11.235729 4.060001,-16.854091 0.920068,-3.82196 1.841646,-7.643555 2.76328,-11.465137 1.125914,-4.668768 2.251178,-9.337693 3.376247,-14.006665 l 0.618356,-2.566015 c 0.397628,-1.650535 0.795087,-3.30111 1.192369,-4.951728 0.384858,-1.598934 0.7700944,-3.197777 1.155733,-4.796522 1.0602581,-4.403291 2.1049637,-8.809835 3.1349516,-13.220312 l 0.6891814,-2.937077 c 0.4413517,-1.882944 0.8797798,-3.7665766 1.3149738,-5.6509535 L -3.8537293,5.1199341 -3.3260698,2.8492765 C -2.6567385,0.5227936 -2.4460006,0.16085422 0,0 Z"
     fill="#f4eee2"
     transform="translate(288.82863,297.87975)"
     id="path6"
     sodipodi:nodetypes="ccccccccccccccsccccccccccccccccccccsscsccccccc" />
  <path
     d="M0 0 C8.64455946 6.92719289 12.84058909 16.62593705 14.52734375 27.375 C14.80858748 31.6925225 14.81105985 35.99789949 14.80200195 40.32348633 C14.80711288 41.59299637 14.81222382 42.86250641 14.81748962 44.17048645 C14.83079505 47.62935634 14.83146768 51.08811639 14.82892632 54.54700685 C14.82785059 57.44671419 14.83275541 60.34639985 14.83753175 63.24610251 C14.84859823 70.09450502 14.84908084 76.94285266 14.84301758 83.79125977 C14.83698316 90.82756411 14.84928177 97.86366821 14.87058765 104.8999384 C14.88827356 110.96651211 14.89419395 117.0330225 14.8909499 123.099621 C14.88914761 126.71162442 14.89166652 130.32348507 14.90566444 133.93546486 C14.92071653 137.96988289 14.91121196 142.00390043 14.8996582 146.03833008 C14.90730194 147.21534485 14.91494568 148.39235962 14.92282104 149.6050415 C14.84021855 162.72567373 11.94669034 175.68652922 2.52734375 185.375 C-7.00224601 192.54309055 -17.86679421 193.91322435 -29.47265625 192.375 C-38.97383085 189.57991172 -45.8093409 183.62676571 -50.77734375 175.1484375 C-55.37344502 165.6543013 -55.77116487 155.70132035 -55.76318359 145.32885742 C-55.76990082 144.06080765 -55.77661804 142.79275787 -55.78353882 141.48628235 C-55.80106736 138.03567876 -55.80588855 134.5851746 -55.80717039 131.13453078 C-55.80859991 128.97114474 -55.8128845 126.80778334 -55.81816483 124.64440346 C-55.83662075 117.07566368 -55.84484092 109.50699396 -55.84326172 101.93823242 C-55.84206113 94.91721371 -55.86315853 87.89650279 -55.89474905 80.87556189 C-55.92101849 74.81829249 -55.93162459 68.76112299 -55.9303509 62.70379716 C-55.92984444 59.09898756 -55.93535046 55.49445204 -55.956707 51.88969994 C-55.97991825 47.86269921 -55.97050378 43.83637607 -55.95849609 39.80932617 C-55.96973511 38.63747772 -55.98097412 37.46562927 -55.99255371 36.25827026 C-55.90279637 24.33816112 -53.12169602 12.18923331 -44.5859375 3.44140625 C-32.23182922 -7.8773101 -14.14347551 -9.29492229 0 0 Z "
     fill="#081D2B"
     transform="translate(830.47265625,502.625)"
     id="path7" />
  <path
     d="M0 0 C10.02273401 7.76385406 14.29317097 18.67752698 16 31 C16 34.3 16 37.6 16 41 C4.45 41 -7.1 41 -19 41 C-19.99 35.555 -19.99 35.555 -21 30 C-23.15402634 25.90734995 -24.72074171 23.68622262 -29 22 C-33.87977232 21.28420829 -38.86183235 20.85118789 -43.3046875 23.23828125 C-46.24960993 25.70052968 -47.77090728 27.31272184 -49 31 C-49.85471018 40.10508051 -49.85471018 40.10508051 -46.52636719 48.31347656 C-39.26801585 56.33342074 -27.96616968 60.99365509 -18.51977539 66.02050781 C-10.85063439 70.11359419 -3.63345899 74.31354287 3 80 C3.97924438 80.83470825 3.97924438 80.83470825 4.97827148 81.6862793 C11.53189081 87.44234347 16.56472136 96.58425672 17.16113281 105.375 C17.4585457 123.96676367 17.01069805 137.63022291 3.75 151.6875 C-7.44347022 162.41301578 -19.56929906 165.58025397 -34.8125 165.4375 C-35.955979 165.42920166 -37.09945801 165.42090332 -38.27758789 165.41235352 C-53.44560825 165.10927354 -65.48533243 161.07291731 -76.875 150.6875 C-87.92037708 138.82100376 -87.22592515 124.1369848 -87 109 C-75.78 109 -64.56 109 -53 109 C-52.01 113.95 -51.02 118.9 -50 124 C-46.07229508 130.31833537 -46.07229508 130.31833537 -40 133 C-33.765523 133.66897518 -28.28368221 133.73723864 -23 130 C-18.74197548 125.2816485 -17.7983326 122.5699732 -17.625 116.25 C-17.55152344 114.43242187 -17.55152344 114.43242187 -17.4765625 112.578125 C-18.12654066 108.13499069 -19.59383742 105.77427563 -23 103 C-26.46717503 100.8371678 -30.0810177 99.04351866 -33.75 97.25 C-35.82453755 96.19981034 -37.89744338 95.14639154 -39.96875 94.08984375 C-40.99097656 93.57019043 -42.01320313 93.05053711 -43.06640625 92.51513672 C-60.21383115 83.6588685 -77.79867042 73.83351927 -84.2734375 54.578125 C-88.10154628 40.9945132 -87.20003183 25.71532089 -80.625 13.1875 C-73.37554799 1.14784961 -62.25674145 -6.04463477 -48.6640625 -9.61328125 C-31.91947828 -12.0439467 -14.34263184 -9.23400441 0 0 Z "
     fill="#F5EEE2"
     transform="translate(463,305)"
     id="path8" />
  <path
     d="m 0,0 c 4.1391009,3.1955881 7.5243562,7.1074873 11,11 l 2.074219,2.261719 c 3.896469,4.623083 3.896469,4.623083 4.011718,9.007812 C 15.591202,27.404325 12.742794,29.88341 8.875,33.4375 7.5573637,34.683526 6.2422538,35.932228 4.9296875,37.183594 l -1.7739258,1.642334 c -1.7670151,1.782023 -3.36464433,3.582375 -4.9853515,5.492676 -5.2696131,6.068594 -11.0370082,11.658017 -16.7342992,17.320449 -2.130422,2.117528 -4.25759,4.238278 -6.383987,6.359848 -5.279073,5.265784 -10.563601,10.526083 -15.847961,15.78656 -4.475896,4.45609 -8.949686,8.914273 -13.420762,13.375199 -2.084473,2.078043 -4.17196,4.15303 -6.259597,6.22789 -5.416012,5.39512 -10.786217,10.75518 -15.738037,16.58524 -4.390838,4.98205 -9.149324,9.64457 -13.817017,14.36605 l -1.725967,1.74589 c -3.006701,3.03904 -6.017302,6.07417 -9.030383,9.1069 -2.4832,2.5011 -4.95757,5.01048 -7.4248,7.52734 -2.99685,3.05703 -6.00816,6.09908 -9.03038,9.13101 -1.14378,1.15232 -2.28243,2.30976 -3.41568,3.47243 -1.58377,1.62269 -3.18546,3.2254 -4.79271,4.82478 l -2.74207,2.7733 c -3.48743,2.58257 -5.46386,3.24445 -9.80676,3.07851 -2.49359,-1.70877 -4.20669,-3.16796 -6.25488,-5.31494 l -1.76187,-1.7486 c -1.9153,-1.91067 -3.80049,-3.84836 -5.68637,-5.78802 -1.32642,-1.33627 -2.65447,-2.67091 -3.98407,-4.004 -2.78258,-2.79786 -5.55173,-5.60812 -8.31086,-8.42911 -3.53266,-3.61174 -7.08646,-7.20167 -10.64916,-10.78378 -3.40072,-3.4207 -6.79149,-6.85121 -10.18091,-10.28311 l -1.95689,-1.97747 c -1.83137,-1.8546 -3.65563,-3.71591 -5.47769,-5.57966 l -1.63412,-1.65042 c -6.99098,-7.19153 -6.99098,-7.19153 -7.26724,-12.72995 1.66763,-5.31629 4.84393,-8.267394 8.78906,-12.08594 l 2.12109,-2.191406 c 3.23002,-3.194058 5.55135,-5.197403 9.90235,-6.660157 7.49036,0.506342 12.60451,7.214097 17.59375,12.273438 l 2.3284,2.336975 c 2.43956,2.45071 4.87205,4.90829 7.30441,7.36615 1.65839,1.66843 3.31724,3.3364 4.97656,5.00391 4.0548,4.07678 8.10382,8.15922 12.14844,12.24609 10.38266,-9.74814 18.77613,-17.99291 27.95352,-27.21347 0.99066,-0.985174 1.98142,-1.970248 2.97226,-2.955231 1.0418,-1.042867 2.08316,-2.086168 3.12412,-3.129868 2.825934,-2.830782 5.658078,-5.655279 8.491509,-8.478559 2.962544,-2.953762 5.919816,-5.912794 8.87778,-8.871142 4.966568,-4.965631 9.936992,-9.927374 14.909913,-14.886642 5.75417,-5.738432 11.503084,-11.482087 17.249024,-17.22876 5.5238,-5.52441 11.050449,-11.04596 16.578704,-16.565912 2.35481,-2.351275 4.708765,-4.703401 7.062073,-7.056179 2.768618,-2.767616 5.539765,-5.532675 8.312915,-8.29575 1.019166,-1.016238 2.03748,-2.0333296 3.054894,-3.0513209 1.385045,-1.3855334 2.773462,-2.7676936 4.162067,-4.1496582 l 2.355271,-2.350192 C -7.2082509,-1.6701844 -4.8223258,-1.1385344 0,0 Z"
     fill="#ed6f22"
     transform="translate(838,157)"
     id="path9"
     sodipodi:nodetypes="ccccccccscccccsccscccccccccscccccccccccccccccccssscccccc"
     inkscape:label="path9" />
  <path
     d="M0 0 C41.58 0 83.16 0 126 0 C126 12.21 126 24.42 126 37 C111.48 37 96.96 37 82 37 C82 80.56 82 124.12 82 169 C69.46 169 56.92 169 44 169 C44 125.44 44 81.88 44 37 C29.48 37 14.96 37 0 37 C0 24.79 0 12.58 0 0 Z "
     fill="#F4EDE1"
     transform="translate(130,298)"
     id="path10" />
  <path
     d="M0 0 C11.22 0 22.44 0 34 0 C34 21.45 34 42.9 34 65 C34.66 65 35.32 65 36 65 C36.1549292 63.93966553 36.1549292 63.93966553 36.31298828 62.85791016 C37.09466644 59.60619567 38.35375982 57.18805382 39.9921875 54.2734375 C40.6102124 53.16718018 41.2282373 52.06092285 41.86499023 50.92114258 C42.53475997 49.73896272 43.20476777 48.55691771 43.875 47.375 C44.55392749 46.16651847 45.23239125 44.9577763 45.91040039 43.7487793 C51.51313505 33.77866685 57.2188426 23.8676304 63 14 C65.28347125 17.42520688 66.13538561 20.7702293 67.1875 24.6875 C69.12150773 31.67476141 71.61344069 38.15703682 74.85229492 44.64526367 C76.89698117 48.93377571 77.39129421 51.45087205 76 56 C74.80375471 58.91476955 73.45639079 61.73771248 72.0625 64.5625 C71.3437868 66.04235491 70.6263057 67.52280895 69.91015625 69.00390625 C69.59183838 69.65174072 69.27352051 70.2995752 68.94555664 70.96704102 C68.63352295 71.63791748 68.32148926 72.30879395 68 73 C67.58468018 73.80429443 67.16936035 74.60858887 66.74145508 75.43725586 C65.74664616 77.98584365 65.74664616 77.98584365 66.77587891 80.4375 C67.49396729 81.7059375 67.49396729 81.7059375 68.2265625 83 C68.75822021 83.95946533 69.28987793 84.91893066 69.83764648 85.9074707 C70.42747314 86.92800537 71.0172998 87.94854004 71.625 89 C72.21804932 90.05856201 72.81109863 91.11712402 73.42211914 92.20776367 C75.26297263 95.48269945 77.12891165 98.74226185 79 102 C80.11143331 103.95399713 81.22214625 105.90840425 82.33203125 107.86328125 C84.29145487 111.30781159 86.26363554 114.74446892 88.24609375 118.17578125 C91.25325434 123.40196619 94.13223444 128.6963575 97 134 C96.20416504 134.05534912 95.40833008 134.11069824 94.58837891 134.16772461 C90.93380982 134.42277478 87.27940583 134.68012177 83.625 134.9375 C82.37332031 135.02451172 81.12164063 135.11152344 79.83203125 135.20117188 C72.87469752 135.69292059 65.93435394 136.24828932 59 137 C54.46412556 129.95100593 50.41636323 122.65123036 46.375 115.3125 C45.37027499 113.49137548 44.36490288 111.67061362 43.35855103 109.85038757 C42.45044715 108.20738084 41.54425699 106.56331681 40.63818359 104.91918945 C39.13928742 102.24820562 37.59097911 99.61694043 36 97 C36.00745743 97.60055206 36.01491486 98.20110413 36.02259827 98.81985474 C36.09152058 105.08235138 36.09745098 111.34268269 36.06713867 117.60546875 C36.06406034 119.941115 36.07693428 122.27683979 36.10620117 124.61230469 C36.14554938 127.97478779 36.12713809 131.33281411 36.09765625 134.6953125 C36.13452293 136.25658371 36.13452293 136.25658371 36.1721344 137.84939575 C36.03161454 144.97358048 36.03161454 144.97358048 33.0274353 147.96263123 C30.74327196 149.49554262 28.45709768 150.7689602 26 152 C19.30319949 156.55558666 13.51137094 161.19394275 8.16796875 167.3125 C6 169 6 169 0 169 C0 113.23 0 57.46 0 0 Z "
     fill="#F5EEE2"
     transform="translate(496,298)"
     id="path11" />
  <path
     d="M0 0 C2.38112644 2.38112644 2.62600948 3.78448486 3.42041016 7.02880859 C3.68052887 8.07684662 3.94064758 9.12488464 4.20864868 10.2046814 C4.48268524 11.34112091 4.7567218 12.47756042 5.0390625 13.6484375 C5.32478119 14.81251129 5.61049988 15.97658508 5.90487671 17.17593384 C6.50835421 19.64152211 7.10832428 22.10797107 7.70507812 24.57519531 C8.62002316 28.35444278 9.54739895 32.13047618 10.4765625 35.90625 C11.0606396 38.29929776 11.64399691 40.69252133 12.2265625 43.0859375 C12.50464752 44.21832855 12.78273254 45.3507196 13.06924438 46.51742554 C13.32305878 47.57176788 13.57687317 48.62611023 13.83837891 49.71240234 C14.0632901 50.63902679 14.28820129 51.56565125 14.51992798 52.52035522 C15 55 15 55 15 59 C5.43 59 -4.14 59 -14 59 C-12.32934453 51.72217517 -10.65756561 44.4446274 -8.98291016 37.16772461 C-8.41388746 34.69359322 -7.84552121 32.21931075 -7.27783203 29.74487305 C-6.46039787 26.18237759 -5.6405824 22.6204372 -4.8203125 19.05859375 C-4.56814972 17.95728622 -4.31598694 16.8559787 -4.05618286 15.72129822 C-2.83625487 10.43430399 -1.55896637 5.19763268 0 0 Z "
     fill="#0B1D29"
     transform="translate(308,346)"
     id="path12" />
</svg>
